<svg version="1.1" viewBox="0.0 0.0 960.0 540.0" fill="none" stroke="none" stroke-linecap="square" stroke-miterlimit="10" xmlns:xlink="http://www.w3.org/1999/xlink" xmlns="http://www.w3.org/2000/svg"><clipPath id="g244a79b3d54_0_32.0"><path d="m0 0l960.0 0l0 540.0l-960.0 0l0 -540.0z" clip-rule="nonzero"/></clipPath><g clip-path="url(#g244a79b3d54_0_32.0)"><path fill="#000000" fill-opacity="0.0" d="m0 0l960.0 0l0 540.0l-960.0 0z" fill-rule="evenodd"/><path fill="#000000" fill-opacity="0.0" d="m35.480316 108.46982l937.0394 0l0 302.17322l-937.0394 0z" fill-rule="evenodd"/><path fill="#242456" d="m123.886566 307.4073q0 -6.046875 -5.984375 -9.515625q-5.96875 -3.46875 -19.1875 -6.203125q-43.984375 -9.234375 -43.984375 -37.374985q0 -16.40625 13.609375 -27.390625q13.625 -11.0 35.609375 -11.0q23.46875 0 37.53125 11.046875q14.078125 11.046875 14.078125 28.703125l-32.921875 0q0 -7.0625 -4.5625 -11.671875q-4.546875 -4.609375 -14.234375 -4.609375q-8.3125 0 -12.875 3.765625q-4.5625 3.75 -4.5625 9.5625q0 5.4687347 5.1875 8.82811q5.1875 3.359375 17.484375 5.8125q12.3125 2.453125 20.734375 5.53125q26.09375 9.5625 26.09375 33.140625q0 16.859375 -14.46875 27.296875q-14.46875 10.421875 -37.375 10.421875q-15.484375 0 -27.515625 -5.515625q-12.015625 -5.53125 -18.859375 -15.15625q-6.828125 -9.640625 -6.828125 -20.796875l31.21875 0q0.453125 8.765625 6.484375 13.4375q6.046875 4.671875 16.1875 4.671875q9.453125 0 14.296875 -3.578125q4.84375 -3.59375 4.84375 -9.40625zm124.63991 34.0625q-2.28125 -4.4375 -3.296875 -11.046875q-11.96875 13.328125 -31.109375 13.328125q-18.109375 0 -30.015625 -10.484375q-11.90625 -10.484375 -11.90625 -26.4375q0 -19.59375 14.515625 -30.0625q14.53125 -10.484375 41.984375 -10.609375l15.15625 0l0 -7.0625q0 -8.54686 -4.390625 -13.67186q-4.375 -5.125 -13.828125 -5.125q-8.328125 0 -13.0625 4.0q-4.71875 3.984375 -4.71875 10.921875l-32.921875 0q0 -10.703125 6.609375 -19.8125q6.609375 -9.125 18.671875 -14.296875q12.078125 -5.1875 27.125 -5.1875q22.78125 0 36.17186 11.453125q13.390625 11.4375 13.390625 32.17186l0 53.4375q0.109375 17.546875 4.890625 26.546875l0 1.9375l-33.26561 0zm-27.234375 -22.90625q7.296875 0 13.453125 -3.234375q6.15625 -3.25 9.109375 -8.71875l0 -21.1875l-12.296875 0q-24.734375 0 -26.328125 17.078125l-0.109375 1.9375q0 6.15625 4.328125 10.140625q4.328125 3.984375 11.84375 3.984375zm125.32338 -17.3125l22.90625 -83.04686l34.40625 0l-41.578125 123.26561l-31.453125 0l-41.578125 -123.26561l34.40625 0l22.890625 83.04686zm117.9173 0l22.90625 -83.04686l34.40625 0l-41.578125 123.26561l-31.453125 0l-41.578125 -123.26561l34.40625 0l22.890625 83.04686zm117.80786 -6.375l22.78125 -76.67186l35.328125 0l-49.5625 142.40623l-2.734375 6.5000305q-11.046875 24.140625 -36.453125 24.140625q-7.187439 0 -14.593689 -2.15625l0 -24.953156l5.015625 0.109375q9.343689 0 13.953064 -2.84375q4.625 -2.84375 7.234375 -9.453125l3.875 -10.140625l-43.171814 -123.60936l35.43744 0l22.890625 76.67186zm200.63025 46.59375q-2.28125 -4.4375 -3.296875 -11.046875q-11.96875 13.328125 -31.109375 13.328125q-18.109375 0 -30.015625 -10.484375q-11.90625 -10.484375 -11.90625 -26.4375q0 -19.59375 14.515625 -30.0625q14.53125 -10.484375 41.984375 -10.609375l15.15625 0l0 -7.0625q0 -8.54686 -4.390625 -13.67186q-4.375 -5.125 -13.828125 -5.125q-8.328125 0 -13.0625 4.0q-4.71875 3.984375 -4.71875 10.921875l-32.921875 0q0 -10.703125 6.609375 -19.8125q6.609375 -9.125 18.671875 -14.296875q12.078125 -5.1875 27.125 -5.1875q22.78125 0 36.171875 11.453125q13.390625 11.4375 13.390625 32.17186l0 53.4375q0.109375 17.546875 4.890625 26.546875l0 1.9375l-33.265625 0zm-27.234375 -22.90625q7.296875 0 13.453125 -3.234375q6.15625 -3.25 9.109375 -8.71875l0 -21.1875l-12.296875 0q-24.734375 0 -26.328125 17.078125l-0.109375 1.9375q0 6.15625 4.328125 10.140625q4.328125 3.984375 11.84375 3.984375zm115.64172 22.90625l-33.03125 0l0 -123.26561l33.03125 0l0 123.26561zm-34.96875 -155.17186q0 -7.40625 4.953125 -12.1875q4.953125 -4.78125 13.5 -4.78125q8.4375 0 13.4375 4.78125q5.015625 4.78125 5.015625 12.1875q0 7.515625 -5.078125 12.3125q-5.0625 4.78125 -13.375 4.78125q-8.3125 0 -13.390625 -4.78125q-5.0625 -4.796875 -5.0625 -12.3125z" fill-rule="nonzero"/><path fill="#000000" fill-opacity="0.0" d="m607.86664 -3.760177l185.63782 0l0 442.77164l-185.63782 0z" fill-rule="evenodd"/><path fill="#4a49c9" d="m638.351 316.3811q0 -11.765625 7.9375 -19.09375q7.9375 -7.34375 19.875 -7.34375q12.109375 0 20.03125 7.34375q7.9375 7.328125 7.9375 19.09375q0 11.59375 -7.84375 18.84375q-7.84375 7.25 -20.125 7.25q-12.109375 0 -19.96875 -7.25q-7.84375 -7.25 -7.84375 -18.84375z" fill-rule="nonzero"/><path fill="#000000" fill-opacity="0.0" d="m621.4719 -40.549534l185.63782 0l0 114.74016l-185.63782 0z" fill-rule="evenodd"/></g></svg>